<?xml version="1.0" standalone="no"?>
<!DOCTYPE svg PUBLIC "-//W3C//DTD SVG 1.1//EN" "http://www.w3.org/Graphics/SVG/1.1/DTD/svg11.dtd" >
<svg xmlns="http://www.w3.org/2000/svg">
<metadata>Generated by IcoMoon</metadata>
<defs>
<font id="icomoon" horiz-adv-x="1024">
<font-face units-per-em="1024" ascent="960" descent="-64" />
<missing-glyph horiz-adv-x="1024" />
<glyph unicode="&#x20;" horiz-adv-x="512" d="" />
<glyph unicode="&#xe900;" glyph-name="arrow-button" horiz-adv-x="1371" d="M1367.971 454.609l-502.505 502.505c-1.862 1.862-4.189 2.793-6.796 2.793-2.513 0-5.027-1.024-6.796-2.793l-109.289-109.661c-0.279-0.279-0.465-0.559-0.745-0.838-3.165-4.003-2.7-9.775 1.117-13.312 0.186-0.186 0.465-0.372 0.745-0.559l290.257-290.351h-1024.279c-5.306 0-9.681-4.282-9.681-9.681v-169.891c0-5.399 4.282-9.681 9.681-9.681h1024.186l-291.375-291.375c-1.862-1.862-2.793-4.282-2.793-6.796 0-2.607 1.024-5.12 2.793-6.889l109.382-109.382c1.955-1.955 4.375-2.793 6.889-2.793 2.327 0 4.934 0.931 6.703 2.793l502.505 502.225c1.862 1.862 2.793 4.282 2.793 6.796s-0.931 5.12-2.793 6.889z" />
<glyph unicode="&#xe901;" glyph-name="arrow-next" horiz-adv-x="663" d="M125.946-64l-125.946 119.851 410.523 390.302-408.584 388.455 122.344 125.392 538.223-514.031z" />
<glyph unicode="&#xe902;" glyph-name="arrrow-slide-next" horiz-adv-x="595" d="M0-2.892l63.644-61.108 531.787 510.54-532.409 513.46-62.4-64.505 467.521-448.906z" />
<glyph unicode="&#xe903;" glyph-name="arrrow-slide-prev" horiz-adv-x="595" d="M595.431 898.892l-63.644 61.108-531.787-510.588 532.361-513.412 62.4 64.505-467.521 448.858z" />
<glyph unicode="&#xe904;" glyph-name="breadcrumb-more" horiz-adv-x="59" d="M26.256-4.923v964.923h6.564v-964.923h26.256l-29.538-59.077-29.538 59.077h26.256z" />
<glyph unicode="&#xe905;" glyph-name="check" horiz-adv-x="1138" d="M966.087 954.652l-544.768-631.012c-6.258-7.054-17.18-7.054-23.438 0l-227.897 265.102c-6.258 7.168-17.18 7.168-23.438 0l-142.108-164.068c-6.258-7.168-6.258-19.797 0-27.079l394.923-456.135c6.258-7.054 17.18-7.054 23.438 0l710.201 822.158c6.258 7.168 6.258 19.797 0 27.079l-145.067 164.068c-6.144 7.054-15.588 7.054-21.845-0.114z" />
<glyph unicode="&#xe906;" glyph-name="close-light" d="M0 893.198l66.802 66.802 957.198-957.198-66.802-66.802zM66.802-64l-66.802 66.802 957.198 957.198 66.802-66.802z" />
<glyph unicode="&#xe907;" glyph-name="close" d="M938.682 960l85.318-85.379-938.621-938.621-85.379 85.318zM1024 21.318l-85.318-85.318-938.682 938.621 85.379 85.379z" />
<glyph unicode="&#xe908;" glyph-name="expand-level-1" horiz-adv-x="1611" d="M808.226 960l-808.226-870.721 150.47-151.172 657.655 711.524 659.561-713.63 143.448 155.085z" />
<glyph unicode="&#xe909;" glyph-name="expand-level-2" horiz-adv-x="1707" d="M1706.667 75.605l-136.533-139.605-716.8 742.912-716.8-742.912-136.533 139.605 853.333 884.395z" />
<glyph unicode="&#xe90a;" glyph-name="globe" d="M512 960c-282.778 0-512-229.222-512-512s229.222-512 512-512c282.778 0 512 229.222 512 512s-229.222 512-512 512zM512-12.8c-40.55 0-92.774 75.52-124.723 204.8h249.446c-31.949-129.28-84.224-204.8-124.723-204.8zM376.32 243.2c-9.779 52.992-16.026 113.101-17.357 179.2h306.176c-1.331-66.099-7.578-126.208-17.408-179.2h-271.411zM52.48 422.4h255.232c1.229-63.437 6.963-123.904 16.64-179.2h-224.512c-27.238 54.528-43.776 115.098-47.36 179.2zM512 908.8c40.499 0 92.774-75.52 124.723-204.8h-249.446c31.949 129.28 84.173 204.8 124.723 204.8zM647.68 652.8c9.779-52.992 16.026-113.050 17.408-179.2h-306.176c1.331 66.15 7.578 126.208 17.357 179.2h271.411zM307.712 473.6h-255.232c3.533 64.102 20.122 124.672 47.309 179.2h224.512c-9.626-55.296-15.309-115.763-16.589-179.2zM716.288 422.4h255.181c-3.533-64.102-20.122-124.672-47.309-179.2h-224.563c9.728 55.296 15.411 115.763 16.691 179.2zM716.288 473.6c-1.28 63.437-7.014 123.904-16.64 179.2h224.563c27.187-54.528 43.725-115.098 47.309-179.2h-255.232zM894.925 704h-205.722c-18.893 81.51-46.387 149.094-79.565 194.15 118.374-25.651 219.853-96.717 285.286-194.15zM414.362 898.15c-33.178-45.056-60.672-112.64-79.514-194.15h-205.722c65.331 97.434 166.912 168.499 285.235 194.15zM129.126 192h205.722c18.893-81.51 46.336-149.094 79.514-194.15-118.323 25.651-219.904 96.717-285.235 194.15zM609.638-2.15c33.126 45.056 60.672 112.64 79.565 194.15h205.722c-65.434-97.434-166.912-168.499-285.286-194.15z" />
<glyph unicode="&#xe90b;" glyph-name="hamburger" horiz-adv-x="1510" d="M1465.919 960h-1421.466c-11.749 0-22.192-4.122-30.162-11.886-0.275-0.206-0.412-0.412-0.55-0.481l-1.374-1.443c-8.107-8.039-12.367-18.619-12.367-30.643v-17.726c0-24.528 19.925-44.384 44.384-44.384h1421.466c24.528 0 44.453 19.925 44.453 44.384v17.726c0.069 24.528-19.856 44.453-44.384 44.453zM1465.919 501.316h-1421.466c-12.024 0-22.604-4.26-29.75-11.474l-2.405-2.336c-8.039-8.107-12.298-18.688-12.298-30.643v-17.795c0-24.459 19.925-44.384 44.384-44.384h1421.466c24.528 0 44.453 19.925 44.453 44.384v17.795c0.069 24.528-19.856 44.453-44.384 44.453zM1465.919 42.632h-1421.466c-12.024 0-22.604-4.26-29.475-11.268l-2.68-2.542c-8.039-8.039-12.298-18.619-12.298-30.574v-17.726c0-24.528 19.925-44.453 44.384-44.453h1421.466c24.528 0 44.453 19.925 44.453 44.453v17.726c0.069 24.459-19.856 44.384-44.384 44.384z" />
<glyph unicode="&#xe90c;" glyph-name="link" d="M945.664 503.637l-66.133-66.389c-69.461-69.205-166.485-88.235-255.232-65.365l226.731 226.901c52.395 52.395 52.395 137.216 0 189.611-52.309 52.395-137.045 52.395-189.525 0l-226.048-226.219c-22.187 88.064-3.072 184.235 65.792 253.355l66.389 66.304c104.533 104.363 273.579 104.363 378.112 0 104.448-104.619 104.448-273.749-0.085-378.197zM274.859 210.603c-25.173 25.173-25.173 65.792 0 90.624l384 384.085c25.003 24.917 65.536 24.917 90.368 0 25.173-24.832 25.173-65.365 0-90.539l-384-384.171c-24.832-24.747-65.451-24.747-90.368 0zM171.861 108.885c52.395-52.395 137.216-52.395 189.611 0l226.645 226.901c22.784-88.661 3.84-186.027-65.536-255.147l-66.304-66.304c-104.192-104.448-273.664-104.448-377.941 0-104.533 104.363-104.533 273.835 0 378.027l66.219 66.56c68.864 68.864 165.205 87.808 253.355 65.621l-226.048-226.048c-52.395-52.48-52.395-137.045 0-189.611z" />
<glyph unicode="&#xe90d;" glyph-name="map-pin" horiz-adv-x="704" d="M352.010 437.35c-97.198 0-176.005 77.988-176.005 174.203s78.807 174.203 176.005 174.203 176.005-77.988 176.005-174.203-78.807-174.203-176.005-174.203zM352.010 960c-194.396 0-352.010-156.017-352.010-348.406 0-162.611 251.331-547.963 329.236-663.552 10.854-16.056 34.693-16.056 45.507 0 77.906 115.548 329.236 500.941 329.236 663.552 0.041 192.389-157.573 348.406-351.969 348.406z" />
<glyph unicode="&#xe90e;" glyph-name="minus" horiz-adv-x="7680" d="M7424 960v-1024h-7168v1024z" />
<glyph unicode="&#xe90f;" glyph-name="picture-missing" horiz-adv-x="1232" d="M1073.182 960h-914.595c-87.53-0.148-158.438-70.893-158.586-158.201v-707.599c0.148-87.307 71.057-158.052 158.586-158.201h914.595c87.53 0.148 158.438 70.893 158.586 158.201v707.599c-0.148 87.307-71.057 158.052-158.586 158.201zM158.586 857.6h914.595c30.883 0 55.949-24.992 55.949-55.801v-162.059l-405.222-307.185-121.633 120.832c-34.564 33.005-87.856 36.552-126.516 8.444l-373.107-250.375v590.343c0 30.809 25.036 55.801 55.934 55.801zM1073.182 38.4h-914.595c-29.177-0.104-53.53 22.187-55.949 51.185l429.575 287.239 121.633-120.847c36.389-34.49 92.813-36.582 131.651-4.868l343.619 260.096v-417.005c0.015-30.809-25.036-55.801-55.934-55.801zM282.283 601.6c-42.518 0-76.993 34.386-76.993 76.8s34.46 76.8 76.993 76.8c42.518 0 76.993-34.386 76.993-76.8s-34.475-76.8-76.993-76.8z" />
<glyph unicode="&#xe910;" glyph-name="play" horiz-adv-x="796" d="M796.444 448l-796.444-512v1024z" />
<glyph unicode="&#xe911;" glyph-name="plus" d="M438.857 960h146.286v-1024h-146.286zM1024 521.143v-146.286h-1024v146.286z" />
<glyph unicode="&#xe912;" glyph-name="quote" horiz-adv-x="1597" d="M1547.469 862.638c-240.23 0-447.734-139.059-543.171-338.985 49.193 29.368 106.947 46.285 168.714 46.285 178.913 0 324.731-142.172 324.731-316.989s-145.818-316.948-324.731-316.948c-178.954 0-324.485 142.172-324.485 316.948 0 6.226 0.246 12.411 0.573 18.514-0.164 1.966-0.573 3.809-0.573 5.816 0 376.504 313.508 682.721 698.9 682.721 27.771 0 49.971-21.627 49.971-48.497 0.041-27.238-22.159-48.865-49.93-48.865v0zM698.86 862.638c-240.312 0-447.98-139.1-543.375-339.19 49.234 29.491 107.069 46.49 168.96 46.49 178.913 0 324.444-142.172 324.444-316.989s-145.531-316.948-324.444-316.948-324.444 142.172-324.444 316.948c0 6.226 0.205 12.411 0.573 18.473-0.205 1.925-0.573 3.85-0.573 5.857 0 376.504 313.467 682.721 698.86 682.721 27.566 0 50.012-21.627 50.012-48.497 0-27.238-22.446-48.865-50.012-48.865v0z" />
<glyph unicode="&#xe913;" glyph-name="search" d="M681.4 565.339c0.461-159.581-125.43-287.545-282.995-287.66-154.282-0.23-283.456 126.639-283.859 278.561-0.403 161.136 124.221 288.293 282.938 288.639 155.261 0.403 283.456-125.891 283.917-279.54zM1023.654 17.489c-101.358 101.3-203.234 203.176-305.858 305.57 72.793 103.373 96.059 216.191 65.422 338.339-24.188 96.347-79.186 172.538-160.675 228.861-162.403 112.3-383.662 86.557-518.133-59.663-133.032-144.607-139.482-367.537-16.298-519.515 131.995-162.863 372.432-198.742 548.31-69.626 102.049-102.049 204.328-204.27 305.685-305.513 27.585 27.585 54.134 54.134 81.547 81.547z" />
<glyph unicode="&#xe914;" glyph-name="sort-carat" horiz-adv-x="1902" d="M950.784-64l-950.784 1024h1901.739z" />
<glyph unicode="&#xe915;" glyph-name="twitter" horiz-adv-x="1291" d="M406.040-64c487.278 0 753.664 393.899 753.664 735.525 0 11.166-0.195 22.333-0.731 33.402 51.736 36.523 96.646 82.018 132.145 133.851-47.494-20.578-98.548-34.475-152.137-40.667 54.711 31.988 96.695 82.603 116.541 142.97-51.249-29.598-107.91-51.102-168.229-62.757-48.323 50.225-117.175 81.676-193.39 81.676-146.286 0-264.923-115.761-264.923-258.487 0-20.285 2.341-40.034 6.875-58.953-220.16 10.825-415.354 113.713-545.987 270.092-22.772-38.181-35.889-82.554-35.889-129.902 0-89.673 46.763-168.862 117.858-215.186-43.447 1.317-84.309 12.971-119.954 32.329 0-1.073 0-2.146 0-3.316 0-125.172 91.331-229.717 212.504-253.416-22.284-5.949-45.69-9.118-69.876-9.118-17.067 0-33.646 1.609-49.786 4.681 33.694-102.741 131.511-177.493 247.467-179.59-90.648-69.339-204.898-110.641-328.997-110.641-21.358 0-42.472 1.122-63.195 3.511 117.224-73.24 256.439-116.005 406.040-116.005z" />
<glyph unicode="&#xe916;" glyph-name="brookfield" horiz-adv-x="6845" d="M3264.56 960h211.466v-507.712l236.705 250.397h259.118l-252.102-260.19 284.309-469.95h-249.227l-187.737 314.713-92.431-86.73v-227.983h-210.101zM4575.257-41.44h212.879v730.141h-212.879v-730.141zM4575.257 779.572h212.879v167.857h-212.879v-167.857zM4111.738 761.398c1.364 37.81 2.777 85.317 30.794 124.492 26.555 36.349 85.366 74.11 187.688 74.11 43.414 0 86.779-7.016 130.241-12.571v-160.889h-53.256c-81.224 0-85.463-16.761-84.050-114.698h144.274v-131.459h-142.861v-581.774h-214.292v581.823h-114.844v131.411h116.306v89.556zM5440.804 418.522c-4.19 30.794-9.794 71.333-40.636 103.491-26.555 26.555-67.24 40.588-105.051 40.588-51.746 0-88.241-25.191-109.192-47.555-29.43-32.158-36.397-65.73-43.463-96.524h298.342zM5655.095 148.635c-25.239-37.762-50.43-74.11-88.241-109.095-63.050-58.762-158.307-103.491-275.928-103.491-217.118 0-369.772 138.476-369.772 377.617 0.049 176.189 86.828 402.71 375.424 402.71 43.414 0 169.465-4.142 263.26-104.856 95.257-102.078 100.812-244.647 103.686-327.284h-522.476c-1.364-90.872 50.381-181.743 166.687-181.743 117.622 0 158.258 76.888 184.862 128.682l162.497-82.54zM5798.249-27.456h215.656v987.456h-215.656zM6640.749 337.638c0 33.571 0 124.443-46.191 180.379-9.794 12.571-40.636 43.414-84.099 43.414-152.655 0-152.655-191.635-152.655-223.793 0-102.127 27.968-226.57 137.258-226.57 23.778 0 49.017 8.429 70.018 22.365 75.67 51.746 75.67 163.667 75.67 204.206zM6845.198 960v-987.456h-196.020v68.556c-33.62-33.523-89.702-88.094-197.53-88.094-72.844 0-148.464 27.871-205.862 83.855-106.464 102.127-106.464 248.984-106.464 296.588 0 275.49 156.894 388.775 303.945 388.775 96.67 0 154.019-44.729 193.242-74.11v311.887h208.688zM235.292 390.748v-239.19h172.242c82.735 1.413 190.514 4.239 190.514 117.524 0 118.84-98.034 120.301-148.416 121.666h-214.34zM235.292 775.333v-205.57h186.275c55.985 1.413 147.1 4.19 147.1 106.269 0 95.159-82.686 99.301-130.29 99.301h-203.085zM0 960h382.392c103.589 0 197.482-4.239 257.705-23.778 121.812-39.175 170.829-135.699 170.829-229.396 0-53.159-13.984-85.317-18.174-95.111-44.827-100.665-140.132-120.301-193.291-131.508 60.175-9.745 140.035-22.365 194.655-83.904 34.984-37.713 54.669-92.285 54.669-148.221 0-76.936-40.588-184.618-163.861-239.141-74.208-32.207-154.068-36.397-267.548-36.397h-417.376v987.456zM1184.597 632.472c47.604 40.539 99.399 72.746 211.466 83.904v-190.173l-71.431-11.158c-103.638-18.223-134.48-33.62-134.48-125.905v-411.14h-215.656v731.359h210.101v-76.888zM1715.258 473.483c-26.652-42.001-36.446-92.333-36.446-142.666 0-116.062 56.033-218.19 176.53-218.19 116.209 0 173.606 93.698 173.606 208.396 0 81.127-19.587 144.030-60.273 183.205-44.778 41.952-95.159 43.414-126.002 40.588-61.637-4.19-98.083-25.239-127.415-71.333zM2247.43 329.453c0-184.569-106.464-387.362-392.137-387.362-205.911 0-393.599 117.427-393.599 387.362 0 223.744 141.448 401.395 421.567 385.998 298.293-16.81 364.169-253.125 364.169-385.998zM2592.304 473.483c-26.652-42.001-36.446-92.333-36.446-142.666 0-116.062 56.033-218.19 176.53-218.19 116.209 0 173.606 93.698 173.606 208.396 0 81.127-19.587 144.030-60.273 183.205-44.778 41.952-95.159 43.414-126.002 40.588-61.637-4.19-98.083-25.239-127.415-71.333zM3124.476 329.453c0-184.569-106.464-387.362-392.137-387.362-205.911 0-393.599 117.427-393.599 387.362 0 223.744 141.448 401.395 421.567 385.998 298.293-16.81 364.169-253.125 364.169-385.998z" />
<glyph unicode="&#xe917;" glyph-name="slide-arrow-thin-next" horiz-adv-x="538" d="M478.131 449.152l-478.131-480.922 29.747-32.23 507.853 513.152-507.853 510.848-29.747-29.901z" />
<glyph unicode="&#xe918;" glyph-name="slide-arrow-thin-prev" horiz-adv-x="538" d="M537.6 930.099l-29.747 29.901-507.853-510.848 507.853-513.152 29.747 32.23-478.131 480.922z" />
<glyph unicode="&#xe919;" glyph-name="download" horiz-adv-x="951" d="M475.259 155.35c-15.208 0-29.539 6.069-40.36 17.109l-272.652 276.381c-10.456 10.602-16.013 24.275-16.013 39.556 0 14.477 5.045 27.857 14.55 38.679 28.077 26.030 60.906 22.301 81.379 1.609l176.723-179.209v553.567c0 14.404 5.045 27.784 14.55 38.606 28.15 26.030 60.906 22.374 81.452 1.609 10.894-11.187 16.744-25.079 16.744-40.214v-553.421l175.919 178.917c26.030 23.397 59.371 20.911 80.063 0.073 10.821-10.894 16.671-24.86 16.671-40.214 0-16.013-6.581-30.563-18.425-41.165l-270.971-274.773c-9.14-10.456-23.69-17.109-39.629-17.109zM893.706-64h-836.894c-11.187 0-32.171 3.948-46.722 30.27-6.654 12.064-10.090 26.541-10.090 42.846 0 15.72 3.144 29.978 9.286 42.627 16.598 26.907 36.778 30.49 47.526 30.49h836.894c19.083 0 35.827-10.602 45.99-28.954 7.165-13.161 10.821-28.004 10.821-44.163 0-16.817-3.948-31.806-11.699-44.382-12.43-25.664-35.754-28.735-45.113-28.735z" />
<glyph unicode="&#xe91a;" glyph-name="mute" horiz-adv-x="1190" d="M1021.42-63.936c-9.287 0-17.478 3.354-24.508 9.868l-904.231 904.296c-6.643 6.643-9.932 14.77-9.932 24.508 0 9.674 3.289 17.865 9.932 24.444l48.952 48.952 0.645 1.354c7.030 7.030 15.479 10.577 25.153 10.577 9.287 0 17.414-3.547 24.444-10.577l904.231-904.296c7.030-7.030 10.642-15.221 10.642-24.444 0-9.674-3.612-17.865-10.642-24.508l-50.242-50.307c-6.579-6.579-14.77-9.868-24.444-9.868zM633.8 18.103c-6.643 0-12.125 1.483-16.511 4.579l-392.908 226.961h-203.162c-6.192 0-11.029 1.87-14.576 5.934-4.386 4.386-6.643 9.416-6.643 15.221v289.006c0 6.192 2.257 11.222 6.643 15.221 3.547 4.386 8.384 6.643 14.576 6.643l0.645-0.645v0.645h202.452l23.799 13.867 414.773-414.063v-134.99c0-7.997-2.902-14.77-8.578-20.445-5.74-5.289-12.577-7.933-20.51-7.933zM813.034 760.256c9.223 0.451 17.607-2.451 25.089-8.578l27.153-26.443 0.709-1.354c57.788-57.337 94.099-126.154 109.127-206.387 14.125-78.491 5.482-154.403-25.798-227.541l-109.772 110.481c7.030 40.568 4.773 80.491-6.643 119.704-12.383 40.568-33.731 76.105-64.173 106.483l-0.645 1.354-0.774-0.645-26.443 27.088c-5.676 7.095-8.578 14.77-8.578 23.218 0 8.771 2.902 16.769 8.578 23.799h-0.645l48.243 48.307c6.708 6.514 14.899 10.061 24.573 10.513zM633.8 813.208c7.482 0 13.867-2.644 19.155-7.933 5.289-4.386 8.578-10.19 9.868-17.22v-210.385l-163.368 162.787 119.769 69.397c4.837 2.257 9.674 3.354 14.576 3.354zM971.178 935.556v0.645l27.088-27.088h-0.645l1.354-0.645c104.032-104.096 165.819-229.089 185.232-375.043 19.413-142.923-5.547-277.203-74.815-402.841l-101.774 101.839c43.212 96.615 55.724 197.357 37.666 302.356-18.51 107.128-66.366 199.292-143.568 276.494l-1.354 0.645-23.799 23.734-3.289 2.709 0.645 0.645c-5.74 6.643-8.578 14.318-8.578 23.154s2.838 16.511 8.578 23.154l-0.645 0.709 47.598 47.598h0.645c6.643 6.643 14.77 10.126 24.508 10.642 9.223 0.322 17.607-2.515 25.153-8.707z" />
<glyph unicode="&#xe91b;" glyph-name="pause" horiz-adv-x="832" d="M64 960h192c35.328 0 64-28.672 64-64v-896c0-35.392-28.672-64-64-64h-192c-35.328 0-64 28.608-64 64v896c0 35.328 28.672 64 64 64zM576 960h192c35.392 0 64-28.672 64-64v-896c0-35.392-28.608-64-64-64h-192c-35.392 0-64 28.608-64 64v896c0 35.328 28.608 64 64 64z" />
<glyph unicode="&#xe91c;" glyph-name="volume" horiz-adv-x="1227" d="M837.879 769.824c9.505 0.931 18.147-1.795 25.858-8.176l0.798 0.665 27.253-27.918 1.329-0.665c79.102-79.102 118.652-174.555 118.652-286.361 0.465-111.34-38.687-206.794-117.323-286.361h1.396l-28.649-27.253c-7.245-5.916-15.421-8.841-24.528-8.841s-17.083 2.925-23.797 8.841l-0.731-0.665-49.056 49.721c-6.381 7.245-9.771 15.687-10.17 25.193-0.532 9.638 2.194 18.213 8.176 25.991h-0.731l27.985 27.918c50.851 51.383 75.778 113.401 74.914 186.121-0.465 72.255-26.19 133.808-77.041 184.725l-0.665 1.396-0.731-0.665-27.253 27.918c-5.451 7.245-8.176 15.488-8.176 24.595s2.659 17.017 8.176 23.863v0.665l49.056 49.056c7.312 6.381 15.687 9.771 25.259 10.237zM653.153 825.727c7.711 0 14.557-2.725 20.407-8.176 5.451-4.985 8.708-11.101 9.638-18.413h0.665v-760.173h-0.665l0.665-4.121c0-8.176-2.991-15.023-8.841-20.473-6.381-5.916-13.693-8.841-21.869-8.841-5.916 0-11.367 1.529-16.352 4.72l-238.634 138.395v-0.665l-167.044 96.118h-208.655v0.665c-6.381 0-11.566 2.061-15.687 6.115-4.454 4.254-6.78 9.439-6.78 15.754v297.329c0 6.315 2.327 11.566 6.847 15.621 4.121 4.587 9.306 6.847 15.687 6.847v0.665h208.655l406.941 235.178 0.665-1.329c5.916 3.191 10.702 4.786 14.358 4.786zM929.211 823.001l-0.731 1.396-0.665-0.731-27.253 27.32v0.665c-5.451 7.245-8.176 15.222-8.176 23.863 0 9.107 2.725 17.283 8.176 24.528l49.056 49.787c7.245 6.381 15.687 9.771 25.259 10.237 9.572 0 18.147-2.725 25.924-8.176l27.985-27.253 0.665-1.396c131.349-131.415 197.289-290.017 197.754-475.873 0.465-185.523-64.81-344.059-195.693-475.939l-27.253-27.918-0.665 0.665c-6.913-5.451-14.823-8.176-23.863-8.176s-17.017 2.526-23.863 7.511h-0.665l-49.056 49.056c-6.381 7.245-9.705 15.687-10.237 25.259-0.931 9.572 1.795 18.147 8.176 25.924l-0.665 0.665 27.918 27.253c103.231 104.095 154.547 229.328 154.082 375.699-0.532 146.77-52.513 272.003-156.209 375.633z" />
</font>
</defs>
</svg>
