<svg width="18" height="27" viewBox="0 0 18 27" fill="none" xmlns="http://www.w3.org/2000/svg">
<path fill-rule="evenodd" clip-rule="evenodd" d="M16.9547 13.636L9.79522 20.7955C9.35588 21.2348 8.64357 21.2348 8.20423 20.7955L1.04477 13.636C0.605434 13.1967 0.605434 12.4844 1.04477 12.045C1.48411 11.6057 2.19642 11.6057 2.63576 12.045L7.87472 17.284L7.87472 2C7.87472 1.37868 8.3784 0.875 8.99972 0.875C9.62104 0.875 10.1247 1.37868 10.1247 2V17.284L15.3637 12.045C15.803 11.6057 16.5153 11.6057 16.9547 12.045C17.394 12.4844 17.394 13.1967 16.9547 13.636Z" fill="white"/>
<path fill-rule="evenodd" clip-rule="evenodd" d="M0.875 25C0.875 24.3787 1.37868 23.875 2 23.875H16C16.6213 23.875 17.125 24.3787 17.125 25C17.125 25.6213 16.6213 26.125 16 26.125H2C1.37868 26.125 0.875 25.6213 0.875 25Z" fill="white"/>
</svg>
