<svg width="39" height="39" viewBox="0 0 39 39" fill="none" xmlns="http://www.w3.org/2000/svg">
<path fill-rule="evenodd" clip-rule="evenodd" d="M22.761 11.3295L29.9205 18.489C30.3598 18.9283 30.3598 19.6406 29.9205 20.08L22.761 27.2394C22.3217 27.6787 21.6094 27.6787 21.17 27.2394C20.7307 26.8001 20.7307 26.0878 21.17 25.6484L26.409 20.4095L9.125 20.4095C8.50368 20.4095 8 19.9058 8 19.2845C8 18.6631 8.50368 18.1595 9.125 18.1595L26.409 18.1595L21.17 12.9205C20.7307 12.4812 20.7307 11.7688 21.17 11.3295C21.6094 10.8902 22.3217 10.8902 22.761 11.3295Z" fill="#ffffff"/>
<path fill-rule="evenodd" clip-rule="evenodd" d="M19.5 37.5C29.4411 37.5 37.5 29.4411 37.5 19.5C37.5 9.55887 29.4411 1.5 19.5 1.5C9.55887 1.5 1.5 9.55887 1.5 19.5C1.5 29.4411 9.55887 37.5 19.5 37.5ZM19.5 39C30.2696 39 39 30.2696 39 19.5C39 8.73045 30.2696 0 19.5 0C8.73045 0 0 8.73045 0 19.5C0 30.2696 8.73045 39 19.5 39Z" fill="#ffffff"/>
</svg>
