<?xml version="1.0" encoding="UTF-8"?>
<svg width="32px" height="32px" viewBox="0 0 32 32" version="1.1" xmlns="http://www.w3.org/2000/svg" xmlns:xlink="http://www.w3.org/1999/xlink">
    <title>Circle X - Light</title>
    <g id="Page-1" stroke="none" stroke-width="1" fill="none" fill-rule="evenodd">
        <g id="About---Global-Presence" transform="translate(-1393.000000, -571.000000)">
            <g id="Map-Overlay" transform="translate(0.000000, 554.500000)">
                <g id="Group" transform="translate(1394.000000, 17.500000)">
                    <path d="M11.1010545,9.36048396 L15.4524808,13.7119103 L19.8039072,9.36048396 C20.2845525,8.87983868 21.0638324,8.87983868 21.5444777,9.36048396 C22.025123,9.84112924 22.025123,10.6204092 21.5444777,11.1010545 L17.414,15.23 L21.5444777,19.360484 C21.99308,19.8090862 22.0229868,20.5178325 21.6341982,21.0011206 L21.5444777,21.1010545 C21.0638324,21.5816998 20.2845525,21.5816998 19.8039072,21.1010545 L19.8039072,21.1010545 L15.4524808,16.7496282 L11.1010545,21.1010545 C10.6204092,21.5816998 9.84112924,21.5816998 9.36048396,21.1010545 C8.87983868,20.6204092 8.87983868,19.8411292 9.36048396,19.360484 L9.36048396,19.360484 L13.49,15.23 L9.36048396,11.1010545 C8.87983868,10.6204092 8.87983868,9.84112924 9.36048396,9.36048396 C9.84112924,8.87983868 10.6204092,8.87983868 11.1010545,9.36048396 Z" id="Combined-Shape" fill="#0F3557" fill-rule="nonzero"></path>
                    <circle id="Oval" stroke="#0F3557" cx="15" cy="15" r="15"></circle>
                </g>
            </g>
        </g>
    </g>
</svg>