<svg xmlns="http://www.w3.org/2000/svg" width="30" height="30" viewBox="0 0 30 30" fill="none">
<path d="M15.5598 28.66H5.43982C5.13982 28.66 4.85982 28.54 4.63982 28.32C4.41982 28.1 4.31982 27.8 4.31982 27.48V2.52003C4.31982 2.20003 4.43982 1.90003 4.63982 1.68003C4.85982 1.46003 5.13982 1.34003 5.43982 1.34003H20.3998C20.6998 1.34003 20.9798 1.46003 21.1998 1.68003L25.3798 6.08003C25.5998 6.30003 25.6998 6.60003 25.6998 6.92003V27.48C25.6998 27.8 25.5798 28.1 25.3798 28.32C25.1598 28.54 24.8798 28.66 24.5798 28.66H18.7598H15.5598Z" stroke="#3A7BCE" stroke-linecap="round" stroke-linejoin="round"/>
<path d="M22.5595 25.0601H7.43945" stroke="#3A7BCE" stroke-linecap="round" stroke-linejoin="round"/>
<path d="M7.43945 14.7402H22.5595" stroke="#3A7BCE" stroke-linecap="round" stroke-linejoin="round"/>
<path d="M7.43945 18.1802H22.5595" stroke="#3A7BCE" stroke-linecap="round" stroke-linejoin="round"/>
<path d="M7.43945 21.6201H22.5595" stroke="#3A7BCE" stroke-linecap="round" stroke-linejoin="round"/>
<path d="M7.43945 11.3198H22.5595" stroke="#3A7BCE" stroke-linecap="round" stroke-linejoin="round"/>
<path d="M7.43945 7.87988H22.5595" stroke="#3A7BCE" stroke-linecap="round" stroke-linejoin="round"/>
</svg>