<svg width="13" height="17" viewBox="0 0 13 17" fill="none" xmlns="http://www.w3.org/2000/svg">
<path fill-rule="evenodd" clip-rule="evenodd" d="M12.7415 11.2781L7.12415 16.7482C6.77944 17.0839 6.22056 17.0839 5.87585 16.7482L0.258531 11.2781C-0.0861754 10.9424 -0.0861754 10.3982 0.258531 10.0625C0.603238 9.72683 1.16212 9.72683 1.50682 10.0625L5.61732 14.0653L5.61732 0.85955C5.61732 0.384834 6.01251 -3.05433e-07 6.5 -2.84124e-07C6.98749 -2.62815e-07 7.38268 0.384834 7.38268 0.85955L7.38268 14.0653L11.4932 10.0625C11.8379 9.72683 12.3968 9.72683 12.7415 10.0625C13.0862 10.3982 13.0862 10.9424 12.7415 11.2781Z" fill="#0F3557"/>
</svg>
