<svg width="17" height="14" viewBox="0 0 17 14" fill="none" xmlns="http://www.w3.org/2000/svg">
<path fill-rule="evenodd" clip-rule="evenodd" d="M3.96777 7C3.96777 6.44772 4.31957 6 4.75353 6H16.0778C16.5117 6 16.8635 6.44772 16.8635 7C16.8635 7.55228 16.5117 8 16.0778 8H4.75353C4.31957 8 3.96777 7.55228 3.96777 7Z" fill="white"/>
<path fill-rule="evenodd" clip-rule="evenodd" d="M3.96777 1C3.96777 0.447715 4.31957 0 4.75353 0H16.0778C16.5117 0 16.8635 0.447715 16.8635 1C16.8635 1.55228 16.5117 2 16.0778 2H4.75353C4.31957 2 3.96777 1.55228 3.96777 1Z" fill="white"/>
<path fill-rule="evenodd" clip-rule="evenodd" d="M3.96777 13C3.96777 12.4477 4.31957 12 4.75353 12H16.0778C16.5117 12 16.8635 12.4477 16.8635 13C16.8635 13.5523 16.5117 14 16.0778 14H4.75353C4.31957 14 3.96777 13.5523 3.96777 13Z" fill="white"/>
<path d="M0.991979 2C1.53983 2 1.98396 1.55229 1.98396 1C1.98396 0.447715 1.53983 0 0.991979 0C0.444124 0 0 0.447715 0 1C0 1.55229 0.444124 2 0.991979 2Z" fill="white"/>
<path d="M0.991979 8C1.53983 8 1.98396 7.55229 1.98396 7C1.98396 6.44772 1.53983 6 0.991979 6C0.444124 6 0 6.44772 0 7C0 7.55229 0.444124 8 0.991979 8Z" fill="white"/>
<path d="M0.991979 14C1.53983 14 1.98396 13.5523 1.98396 13C1.98396 12.4477 1.53983 12 0.991979 12C0.444124 12 0 12.4477 0 13C0 13.5523 0.444124 14 0.991979 14Z" fill="white"/>
</svg>
