<svg width="17" height="15" viewBox="0 0 17 15" fill="none" xmlns="http://www.w3.org/2000/svg">
<path fill-rule="evenodd" clip-rule="evenodd" d="M4 7.5C4 6.94772 4.35464 6.5 4.79211 6.5H16.2079C16.6454 6.5 17 6.94772 17 7.5C17 8.05228 16.6454 8.5 16.2079 8.5H4.79211C4.35464 8.5 4 8.05228 4 7.5Z" fill="#0F3557"/>
<path fill-rule="evenodd" clip-rule="evenodd" d="M4 1.5C4 0.947715 4.35464 0.5 4.79211 0.5H16.2079C16.6454 0.5 17 0.947715 17 1.5C17 2.05228 16.6454 2.5 16.2079 2.5H4.79211C4.35464 2.5 4 2.05228 4 1.5Z" fill="#0F3557"/>
<path fill-rule="evenodd" clip-rule="evenodd" d="M4 13.5C4 12.9477 4.35464 12.5 4.79211 12.5H16.2079C16.6454 12.5 17 12.9477 17 13.5C17 14.0523 16.6454 14.5 16.2079 14.5H4.79211C4.35464 14.5 4 14.0523 4 13.5Z" fill="#0F3557"/>
<circle cx="1" cy="1.5" r="1" fill="#0F3557"/>
<circle cx="1" cy="7.5" r="1" fill="#0F3557"/>
<circle cx="1" cy="13.5" r="1" fill="#0F3557"/>
</svg>
