<svg width="103" height="58" viewBox="0 0 103 58" fill="none" xmlns="http://www.w3.org/2000/svg">
<path fill-rule="evenodd" clip-rule="evenodd" d="M97.0805 3.55102H5.91954C4.61183 3.55102 3.55172 4.61092 3.55172 5.91837V52.0816C3.55172 53.3891 4.61183 54.449 5.91954 54.449H97.0805C98.3882 54.449 99.4483 53.3891 99.4483 52.0816V5.91837C99.4483 4.61092 98.3882 3.55102 97.0805 3.55102ZM5.91954 0C2.65027 0 0 2.64974 0 5.91837V52.0816C0 55.3503 2.65027 58 5.91954 58H97.0805C100.35 58 103 55.3503 103 52.0816V5.91837C103 2.64974 100.35 0 97.0805 0H5.91954Z" fill="#0F3557"/>
<path fill-rule="evenodd" clip-rule="evenodd" d="M10.2298 9.0441C10.7155 8.55851 11.3742 8.28571 12.0611 8.28571C12.7479 8.28571 13.4066 8.55851 13.8923 9.0441C14.378 9.52969 14.6509 10.1883 14.6509 10.875C14.6509 11.5617 14.378 12.2203 13.8923 12.7059C13.4066 13.1915 12.7479 13.4643 12.0611 13.4643C11.3742 13.4643 10.7155 13.1915 10.2298 12.7059C9.74412 12.2203 9.47126 11.5617 9.47126 10.875C9.47126 10.1883 9.74412 9.52968 10.2298 9.0441Z" fill="#0F3557"/>
<path d="M62.2478 25.0269C63.0117 25.4871 63.0117 26.5946 62.2478 27.0547L45.3035 37.2608C44.5144 37.7361 43.5086 37.1679 43.5086 36.2469V15.8347C43.5086 14.9137 44.5144 14.3455 45.3035 14.8208L62.2478 25.0269Z" fill="#0F3557"/>
<path d="M25.2003 48.5306C25.2003 50.0248 23.9888 51.2361 22.4943 51.2361C20.9997 51.2361 19.7882 50.0248 19.7882 48.5306C19.7882 47.0364 20.9997 45.8251 22.4943 45.8251C23.9888 45.8251 25.2003 47.0364 25.2003 48.5306Z" fill="#0F3557"/>
<path fill-rule="evenodd" clip-rule="evenodd" d="M27.7359 49.8834C27.8472 49.451 27.9064 48.9977 27.9064 48.5306C27.9064 48.0635 27.8472 47.6102 27.7359 47.1778H87.4401C88.1873 47.1778 88.7931 47.7835 88.7931 48.5306C88.7931 49.2777 88.1873 49.8834 87.4401 49.8834H27.7359ZM17.2526 49.8834H14.376C13.6288 49.8834 13.023 49.2777 13.023 48.5306C13.023 47.7835 13.6288 47.1778 14.376 47.1778H17.2526C17.1413 47.6102 17.0821 48.0635 17.0821 48.5306C17.0821 48.9977 17.1413 49.451 17.2526 49.8834Z" fill="#0F3557"/>
</svg>
