<svg width="106" height="100" viewBox="0 0 106 100" fill="none" xmlns="http://www.w3.org/2000/svg">
<path fill-rule="evenodd" clip-rule="evenodd" d="M9.9375 4.96875C7.31889 4.96875 4.96875 7.31889 4.96875 9.9375V96.0625C4.96875 98.6811 7.31889 101.031 9.9375 101.031H96.0625C98.6811 101.031 101.031 98.6811 101.031 96.0625V9.9375C101.031 7.31889 98.6811 4.96875 96.0625 4.96875H9.9375ZM1.65625 9.9375C1.65625 5.48944 5.48944 1.65625 9.9375 1.65625H96.0625C100.511 1.65625 104.344 5.48944 104.344 9.9375V96.0625C104.344 100.511 100.511 104.344 96.0625 104.344H9.9375C5.48944 104.344 1.65625 100.511 1.65625 96.0625V9.9375Z" fill="#3A78C3"/>
<path fill-rule="evenodd" clip-rule="evenodd" d="M17.1152 51.896C17.1152 50.9813 17.8568 50.2397 18.7715 50.2397H45.2715C46.1862 50.2397 46.9277 50.9813 46.9277 51.896C46.9277 52.8107 46.1862 53.5522 45.2715 53.5522H18.7715C17.8568 53.5522 17.1152 52.8107 17.1152 51.896Z" fill="#3A78C3"/>
<path fill-rule="evenodd" clip-rule="evenodd" d="M17.1152 37.5415C17.1152 36.6268 17.8568 35.8853 18.7715 35.8853H67.3548C68.2695 35.8853 69.0111 36.6268 69.0111 37.5415C69.0111 38.4562 68.2695 39.1978 67.3548 39.1978H18.7715C17.8568 39.1978 17.1152 38.4562 17.1152 37.5415Z" fill="#3A78C3"/>
<path fill-rule="evenodd" clip-rule="evenodd" d="M17.1152 23.1875C17.1152 22.2728 17.8568 21.5312 18.7715 21.5312H87.2298C88.1445 21.5312 88.8861 22.2728 88.8861 23.1875C88.8861 24.1022 88.1445 24.8438 87.2298 24.8438H18.7715C17.8568 24.8438 17.1152 24.1022 17.1152 23.1875Z" fill="#3A78C3"/>
<path fill-rule="evenodd" clip-rule="evenodd" d="M17.1152 66.25C17.1152 65.3353 17.8568 64.5938 18.7715 64.5938H33.3465C34.2612 64.5938 35.0027 65.3353 35.0027 66.25C35.0027 67.1647 34.2612 67.9062 33.3465 67.9062H18.7715C17.8568 67.9062 17.1152 67.1647 17.1152 66.25Z" fill="#3A78C3"/>
<path fill-rule="evenodd" clip-rule="evenodd" d="M88.4548 62.4846C89.0708 63.1608 89.0221 64.2083 88.3459 64.8244L68.4709 82.9327C67.8417 83.5061 66.8803 83.509 66.2475 82.9395L58.5344 75.9977L48.6019 85.1357C47.9287 85.755 46.8809 85.7113 46.2616 85.0382C45.6423 84.365 45.6859 83.3172 46.3591 82.6979L57.4008 72.5396C58.0295 71.9611 58.9951 71.9558 59.6301 72.5274L67.3487 79.474L86.115 62.3758C86.7912 61.7598 87.8387 61.8085 88.4548 62.4846Z" fill="#3A78C3"/>
<path fill-rule="evenodd" clip-rule="evenodd" d="M72.3242 63.6001C72.3242 62.6854 73.0657 61.9438 73.9805 61.9438H87.2305C88.1452 61.9438 88.8867 62.6854 88.8867 63.6001V75.9668C88.8867 76.8815 88.1452 77.623 87.2305 77.623C86.3157 77.623 85.5742 76.8815 85.5742 75.9668V65.2563H73.9805C73.0657 65.2563 72.3242 64.5148 72.3242 63.6001Z" fill="#3A78C3"/>
</svg>
