<svg width="102" height="76" viewBox="0 0 102 76" fill="none" xmlns="http://www.w3.org/2000/svg">
<path fill-rule="evenodd" clip-rule="evenodd" d="M93.4451 15.2791C93.4451 13.554 91.7392 12.3474 90.1125 12.9218L62.1083 22.8122C61.109 23.1651 60.4408 24.1098 60.4408 25.1695L60.441 35.5995C60.441 37.3217 62.1416 38.5281 63.7671 37.959L91.7712 28.1543C92.7738 27.8033 93.4451 26.857 93.4451 25.7947L93.4451 15.2791ZM90.4451 15.986L90.4451 25.44L63.4409 34.8946L63.4408 25.5232L90.4451 15.986Z" fill="#3A78C3"/>
<path fill-rule="evenodd" clip-rule="evenodd" d="M99 3.00224L53 18.0407L53 71.7282L99 56.6897V3.00224ZM52.0678 15.1892C50.8343 15.5925 50 16.743 50 18.0407V71.7282C50 73.7686 51.9928 75.2137 53.9322 74.5797L99.9322 59.5412C101.166 59.138 102 57.9874 102 56.6897V3.00224C102 0.961853 100.007 -0.483277 98.0678 0.15075L52.0678 15.1892Z" fill="#3A78C3"/>
<path fill-rule="evenodd" clip-rule="evenodd" d="M3 3.00224L49 18.0407L49 71.7282L3 56.6897V3.00224ZM49.9322 15.1892C51.1657 15.5925 52 16.743 52 18.0407V71.7282C52 73.7686 50.0072 75.2137 48.0678 74.5797L2.06778 59.5412C0.834347 59.138 0 57.9874 0 56.6897V3.00224C0 0.961853 1.99284 -0.483277 3.93222 0.15075L49.9322 15.1892Z" fill="#3A78C3"/>
<path fill-rule="evenodd" clip-rule="evenodd" d="M50.9993 72.3536C50.954 72.3444 50.8793 72.3285 50.7685 72.3012C50.5239 72.2409 50.1999 72.1507 49.8143 72.0363C49.0461 71.8084 48.0898 71.5015 47.1482 71.1906C46.2092 70.8806 45.2954 70.5701 44.6156 70.3368C44.276 70.2203 43.9952 70.1232 43.7996 70.0553L43.5735 69.9767L43.4948 69.9492L42.9993 71.365C42.5038 72.7808 42.5038 72.7808 42.5039 72.7808L42.586 72.8095L42.8161 72.8895C43.0145 72.9584 43.2986 73.0566 43.642 73.1744C44.3283 73.4099 45.2538 73.7244 46.2076 74.0394C47.159 74.3535 48.1492 74.6716 48.9612 74.9124C49.3658 75.0325 49.7405 75.1376 50.0505 75.214C50.2951 75.2743 50.6789 75.365 50.9993 75.365C51.3197 75.365 51.7035 75.2743 51.9481 75.214C52.2581 75.1376 52.6327 75.0325 53.0373 74.9124C53.8494 74.6716 54.8396 74.3535 55.7909 74.0394C56.7447 73.7244 57.6703 73.4099 58.3566 73.1744C58.7 73.0566 58.984 72.9584 59.1824 72.8895L59.4126 72.8095L59.4944 72.7809C59.4944 72.7809 59.4948 72.7808 58.9993 71.365L58.5037 69.9492L58.4251 69.9767L58.1989 70.0553C58.0033 70.1232 57.7226 70.2203 57.383 70.3368C56.7032 70.5701 55.7894 70.8806 54.8503 71.1906C53.9088 71.5015 52.9525 71.8084 52.1842 72.0363C51.7987 72.1507 51.4747 72.2409 51.2301 72.3012C51.1193 72.3285 51.0446 72.3444 50.9993 72.3536Z" fill="#3A78C3"/>
<path fill-rule="evenodd" clip-rule="evenodd" d="M50.9994 15.2994L41.4304 12.4287L40.5684 15.3022L50.9994 18.4315L61.4304 15.3022L60.5684 12.4287L50.9994 15.2994Z" fill="#3A78C3"/>
<path fill-rule="evenodd" clip-rule="evenodd" d="M24.5659 54.424C24.3223 55.2158 24.7667 56.0552 25.5585 56.2988L38.5585 60.2988C39.3503 60.5424 40.1896 60.0981 40.4333 59.3063C40.6769 58.5145 40.2325 57.6751 39.4407 57.4315L26.4407 53.4315C25.6489 53.1878 24.8096 53.6322 24.5659 54.424Z" fill="#3A78C3"/>
<path fill-rule="evenodd" clip-rule="evenodd" d="M9.5747 37.3965C9.31586 38.1834 9.74397 39.0312 10.5309 39.2901L28.6647 45.2546L38.5585 48.2988C39.3503 48.5424 40.1896 48.0981 40.4333 47.3063C40.6769 46.5145 40.2325 45.6751 39.4407 45.4315L29.5745 42.3957L11.4683 36.4403C10.6813 36.1814 9.83354 36.6095 9.5747 37.3965Z" fill="#3A78C3"/>
<path fill-rule="evenodd" clip-rule="evenodd" d="M75.4341 54.424C75.6777 55.2158 75.2333 56.0552 74.4415 56.2988L61.4415 60.2988C60.6497 60.5424 59.8104 60.0981 59.5667 59.3063C59.3231 58.5145 59.7675 57.6751 60.5593 57.4315L73.5593 53.4315C74.3511 53.1878 75.1904 53.6322 75.4341 54.424Z" fill="#3A78C3"/>
<path fill-rule="evenodd" clip-rule="evenodd" d="M90.4253 37.3965C90.6841 38.1834 90.256 39.0312 89.4691 39.2901L71.3353 45.2546L61.4415 48.2988C60.6497 48.5424 59.8104 48.0981 59.5667 47.3063C59.3231 46.5145 59.7675 45.6751 60.5593 45.4315L70.4255 42.3957L88.5317 36.4403C89.3187 36.1814 90.1665 36.6095 90.4253 37.3965Z" fill="#3A78C3"/>
<path fill-rule="evenodd" clip-rule="evenodd" d="M9.5747 25.3965C9.31586 26.1834 9.74397 27.0312 10.5309 27.2901L28.6647 33.2546L38.5585 36.2988C39.3503 36.5424 40.1896 36.0981 40.4333 35.3063C40.6769 34.5145 40.2325 33.6751 39.4407 33.4315L29.5745 30.3957L11.4683 24.4403C10.6813 24.1814 9.83354 24.6095 9.5747 25.3965Z" fill="#3A78C3"/>
</svg>
