<svg width="96" height="136" viewBox="0 0 96 136" fill="none" xmlns="http://www.w3.org/2000/svg">
<path fill-rule="evenodd" clip-rule="evenodd" d="M37.5652 35.5691C37.5652 34.4136 38.4996 33.4768 39.6522 33.4768H41.7391C53.2651 33.4768 62.6087 42.8443 62.6087 54.3998C62.6087 55.5553 61.6743 56.4921 60.5217 56.4921C59.3691 56.4921 58.4348 55.5553 58.4348 54.3998C58.4348 45.1554 50.9599 37.6614 41.7391 37.6614H39.6522C38.4996 37.6614 37.5652 36.7246 37.5652 35.5691Z" fill="#3A78C3"/>
<path fill-rule="evenodd" clip-rule="evenodd" d="M37.5652 18.8307C37.5652 17.6752 38.4996 16.7384 39.6522 16.7384H43.4087C63.327 16.7384 79.3043 33.6962 79.3043 54.3998C79.3043 55.5553 78.37 56.4921 77.2174 56.4921C76.0648 56.4921 75.1304 55.5553 75.1304 54.3998C75.1304 35.8149 60.8345 20.923 43.4087 20.923H39.6522C38.4996 20.923 37.5652 19.9862 37.5652 18.8307Z" fill="#3A78C3"/>
<path fill-rule="evenodd" clip-rule="evenodd" d="M37.5652 2.0923C37.5652 0.936755 38.4996 0 39.6522 0H45.0783C73.3294 0 96 24.4881 96 54.3998C96 55.5553 95.0656 56.4921 93.913 56.4921C92.7605 56.4921 91.8261 55.5553 91.8261 54.3998C91.8261 26.5342 70.7685 4.1846 45.0783 4.1846H39.6522C38.4996 4.1846 37.5652 3.24785 37.5652 2.0923Z" fill="#3A78C3"/>
<path fill-rule="evenodd" clip-rule="evenodd" d="M30.4205 47.2823C30.261 47.295 29.7651 47.3456 29.3185 47.3946C20.7046 48.3399 13.6321 54.8567 12.0116 63.3418C11.6734 65.1126 11.6861 64.5713 11.6861 77.1376C11.6861 89.309 11.6801 89.0059 11.9531 90.6172C12.9118 96.2752 16.3968 101.292 21.4458 104.283C23.7869 105.67 26.2837 106.51 29.2895 106.923C30.0367 107.026 33.1823 107.026 33.9295 106.923C36.9353 106.51 39.4321 105.67 41.7732 104.283C46.8163 101.296 50.3143 96.2604 51.2664 90.6172C51.5389 89.002 51.5329 89.3058 51.5329 77.1376C51.5329 66.3566 51.5261 65.5585 51.4278 64.7788C51.0626 61.8821 50.187 59.3015 48.7727 56.9539C45.5499 51.6041 40.136 48.1217 33.9005 47.3875C33.1664 47.3011 31.0028 47.2356 30.4205 47.2823ZM30.3045 52.1092C30.2088 52.1222 29.8173 52.1743 29.4345 52.225C27.0491 52.5405 24.5135 53.5842 22.5374 55.0637C21.1473 56.1047 19.7518 57.6059 18.8188 59.0644C18.3933 59.7294 17.7049 61.1321 17.4106 61.9335C17.1455 62.6553 16.8118 63.9508 16.6629 64.8363C16.5692 65.3938 16.5599 66.3006 16.5417 76.7065C16.5277 84.7257 16.5408 88.1801 16.5872 88.6916C16.669 89.5943 16.8848 90.7043 17.1416 91.544C18.887 97.2506 23.721 101.323 29.6955 102.12C30.6738 102.251 32.5452 102.251 33.5235 102.12C39.9901 101.257 45.11 96.5344 46.398 90.2436C46.4919 89.7852 46.5976 89.0868 46.6329 88.6916C46.6781 88.1863 46.6912 84.6278 46.6773 76.7065C46.655 64.1521 46.6879 65.1707 46.2484 63.4035C44.9205 58.0641 40.6428 53.8231 35.2636 52.5131C33.9538 52.1941 33.3661 52.1238 31.8415 52.1036C31.0918 52.0937 30.4002 52.0962 30.3045 52.1092ZM1.75467 70.5007C1.01185 70.6989 0.372849 71.3074 0.108944 72.0676C0.00291818 72.373 -0.00102464 72.6804 0.000135384 80.5237C0.00135341 89.0118 0.0146941 89.5684 0.261257 91.422C0.534848 93.4788 0.994505 95.4063 1.70061 97.4576C4.87617 106.683 12.3711 114.018 21.7203 117.049C24.121 117.827 26.0365 118.219 28.811 118.5L29.1735 118.536V131.171L18.6898 131.171C12.3195 131.172 8.0736 131.193 7.86845 131.227C6.838 131.394 6.00197 132.229 5.86688 133.226C5.68789 134.547 6.56006 135.732 7.86845 135.944C8.32689 136.019 54.8921 136.019 55.3506 135.944C56.659 135.732 57.5311 134.547 57.3521 133.226C57.217 132.229 56.381 131.394 55.3506 131.227C55.1454 131.193 50.8995 131.172 44.5292 131.171L34.0455 131.171V118.536L34.4081 118.5C38.5663 118.079 41.8878 117.166 45.3848 115.483C48.6662 113.904 51.3637 112.001 53.9439 109.446C58.9004 104.538 62.0551 98.2298 62.958 91.422C63.2044 89.5645 63.2177 89.0101 63.2189 80.5237C63.22 72.6804 63.2161 72.373 63.1101 72.0676C62.6876 70.8508 61.4355 70.1754 60.1954 70.4955C59.4055 70.6994 58.7298 71.3417 58.4938 72.1127C58.4191 72.3568 58.4071 73.41 58.4056 79.8393C58.4036 88.6702 58.3706 89.6319 57.9946 91.7956C56.8363 98.4625 53.1428 104.433 47.6468 108.523C44.7 110.716 41.1592 112.347 37.6126 113.143C32.2989 114.337 26.7814 113.924 21.7783 111.96C13.1921 108.588 6.93532 101.057 5.27388 92.0947C5.07633 91.0291 4.93318 89.7332 4.87257 88.4616C4.83957 87.7693 4.81324 83.9645 4.81272 79.8105C4.81167 71.7795 4.82606 72.1566 4.4998 71.606C4.32417 71.3097 3.8811 70.8797 3.57231 70.7059C3.07239 70.4245 2.34674 70.3426 1.75467 70.5007Z" fill="#3A78C3"/>
<path fill-rule="evenodd" clip-rule="evenodd" d="M14.7718 68.3937C14.7718 67.2382 15.7062 66.3014 16.8588 66.3014H32.8704C34.023 66.3014 34.9574 67.2382 34.9574 68.3937C34.9574 69.5493 34.023 70.486 32.8704 70.486H16.8588C15.7062 70.486 14.7718 69.5493 14.7718 68.3937Z" fill="#3A78C3"/>
<path fill-rule="evenodd" clip-rule="evenodd" d="M14.7718 76.42C14.7718 75.2645 15.7062 74.3277 16.8588 74.3277H32.8704C34.023 74.3277 34.9574 75.2645 34.9574 76.42C34.9574 77.5756 34.023 78.5123 32.8704 78.5123H16.8588C15.7062 78.5123 14.7718 77.5756 14.7718 76.42Z" fill="#3A78C3"/>
<path fill-rule="evenodd" clip-rule="evenodd" d="M14.7718 84.4463C14.7718 83.2908 15.7062 82.354 16.8588 82.354H32.8704C34.023 82.354 34.9574 83.2908 34.9574 84.4463C34.9574 85.6019 34.023 86.5386 32.8704 86.5386H16.8588C15.7062 86.5386 14.7718 85.6019 14.7718 84.4463Z" fill="#3A78C3"/>
</svg>
