<?xml version="1.0" encoding="UTF-8"?>
<svg width="30px" height="29px" viewBox="0 0 30 29" version="1.1" xmlns="http://www.w3.org/2000/svg" xmlns:xlink="http://www.w3.org/1999/xlink">
    <title>noun_adobe acrobat_590293</title>
    <defs>
        <filter color-interpolation-filters="auto" id="filter-1">
            <feColorMatrix in="SourceGraphic" type="matrix" values="0 0 0 0 0.058824 0 0 0 0 0.207843 0 0 0 0 0.341176 0 0 0 1.000000 0"></feColorMatrix>
        </filter>
    </defs>
    <g id="Symbols" stroke="none" stroke-width="1" fill="none" fill-rule="evenodd">
        <g id="noun_adobe-acrobat_590293" transform="translate(-3.000000, 0.000000)" filter="url(#filter-1)">
            <g transform="translate(3.074432, 0.000000)">
                <path d="M12.5666667,0 C10.7985318,0 9.34444444,1.454089 9.34444444,3.22222222 C9.34444444,5.42025789 10.5657163,8.14903867 11.8517361,10.7138889 C10.846504,13.860665 9.70579218,17.2328865 8.246875,20.0784722 C5.26084296,21.2501128 2.59789701,22.1209596 0.996875,23.4114583 C0.971910005,23.4369879 0.948378576,23.4638809 0.926388889,23.4920139 C0.341333963,24.0903161 0,24.90491 0,25.7777778 C0,27.5459078 1.45408787,29 3.22222222,29 C4.08443959,29 4.91665839,28.678245 5.51805556,28.0635417 C5.538869,28.0475857 5.55902457,28.0307894 5.57847222,28.0131944 C6.7569855,26.6059462 8.14659364,24.0531591 9.38472222,21.7197917 C12.2382362,20.5972922 15.2289965,19.4551088 18.1149306,18.7694444 C20.2217193,20.4673174 23.2695588,21.5888889 25.7777778,21.5888889 C27.545911,21.5888889 29,20.1347967 29,18.3666667 C29,16.5985367 27.545911,15.1444444 25.7777778,15.1444444 C23.7663275,15.1444444 20.8432876,15.8624664 18.6083333,16.6145833 C16.7967655,14.9139254 15.1323779,12.7899274 13.9361111,10.5326389 C14.7908307,7.89960548 15.7888889,5.26501734 15.7888889,3.22222222 C15.7888889,1.454089 14.3348018,0 12.5666667,0 Z M12.5666667,1.93333333 C13.2899499,1.93333333 13.8555556,2.49893967 13.8555556,3.22222222 C13.8555556,4.18934967 13.3376694,5.96997544 12.7378472,7.884375 C11.9363465,6.02202078 11.2777778,4.235247 11.2777778,3.22222222 C11.2777778,2.49893967 11.8433838,1.93333333 12.5666667,1.93333333 Z M13.1204861,12.959375 C14.0896216,14.5009344 15.224672,15.9353872 16.4635417,17.2086806 C14.5526766,17.7311961 12.6864608,18.4007094 10.8447917,19.1017361 C11.7342932,17.0940983 12.446385,15.0108189 13.1204861,12.959375 Z M25.7777778,17.0777778 C26.5010623,17.0777778 27.0666667,17.6433744 27.0666667,18.3666667 C27.0666667,19.0899589 26.5010623,19.6555556 25.7777778,19.6555556 C24.3257352,19.6555556 22.2619695,19.0000911 20.6121528,18.0847222 C22.505874,17.5492533 24.5722446,17.0777778 25.7777778,17.0777778 Z M6.54513889,22.8475694 C5.63901262,24.4649961 4.73831999,25.9746717 4.10833333,26.734375 C3.89312917,26.9401461 3.60685309,27.0666667 3.22222222,27.0666667 C2.4989387,27.0666667 1.93333333,26.5010378 1.93333333,25.7777778 C1.93333333,25.4374144 2.07799339,25.099355 2.27569444,24.8815972 C3.0315846,24.296635 4.67605989,23.5956406 6.54513889,22.8475694 Z" id="Shape" fill="#4D4D4D" fill-rule="nonzero"></path>
            </g>
        </g>
    </g>
</svg>