<svg width="40" height="30" viewBox="0 0 40 30" fill="none" xmlns="http://www.w3.org/2000/svg">
<path fill-rule="evenodd" clip-rule="evenodd" d="M26.5367 0.59237L39.4076 13.4633C40.1975 14.2531 40.1975 15.5337 39.4076 16.3235L26.5367 29.1944C25.7469 29.9843 24.4663 29.9843 23.6765 29.1944C22.8867 28.4046 22.8867 27.1241 23.6765 26.3342L33.0949 16.9159L2.02247 16.9159C0.90549 16.9159 -4.9681e-08 16.0104 0 14.8934C1.49043e-07 13.7764 0.905492 12.8709 2.02247 12.8709L33.0949 12.8709L23.6765 3.45257C22.8867 2.66275 22.8867 1.38219 23.6765 0.592366C24.4663 -0.197458 25.7469 -0.197454 26.5367 0.59237Z" fill="#94CEF3"/>
</svg>
