<?xml version="1.0" standalone="no"?>
<!DOCTYPE svg PUBLIC "-//W3C//DTD SVG 20010904//EN"
 "http://www.w3.org/TR/2001/REC-SVG-20010904/DTD/svg10.dtd">
<svg version="1.0" xmlns="http://www.w3.org/2000/svg"
 width="512.000000pt" height="512.000000pt" viewBox="0 0 512.000000 512.000000"
 preserveAspectRatio="xMidYMid meet">
<metadata>
Created by potrace 1.11, written by Peter Selinger 2001-2013
</metadata>
<g transform="translate(0.000000,512.000000) scale(0.100000,-0.100000)"
fill="#000000" stroke="none">
<path d="M770 2555 l0 -2186 1153 4 c633 2 1166 6 1182 10 17 3 59 8 95 11 36
3 76 8 90 10 14 3 43 7 65 11 22 3 47 7 55 10 8 2 26 6 40 9 332 65 627 250
811 509 139 195 212 437 205 682 -13 436 -257 759 -681 903 -87 29 -310 78
-375 82 -24 1 -24 2 -4 10 12 5 34 11 50 13 61 10 191 51 267 83 294 124 492
356 556 654 33 154 33 329 -2 500 -51 251 -218 492 -441 634 -129 83 -283 141
-461 176 -111 21 -130 23 -265 35 -41 4 -91 9 -110 12 -19 3 -529 7 -1132 10
l-1098 5 0 -2187z m2060 1240 c93 -17 125 -27 176 -53 85 -43 147 -115 175
-202 22 -71 17 -232 -9 -301 -41 -103 -132 -182 -254 -220 -134 -42 -210 -47
-730 -48 l-498 -2 0 421 0 421 533 -2 c403 0 550 -4 607 -14z m15 -1589 c296
-50 440 -223 442 -527 2 -263 -103 -414 -339 -493 -49 -16 -71 -21 -147 -32
-25 -4 -55 -9 -66 -12 -11 -3 -251 -7 -532 -9 l-513 -5 0 547 0 546 558 -4
c306 -2 575 -7 597 -11z"/>
</g>
</svg>
