<svg width="80" height="80" viewBox="0 0 80 80" fill="none" xmlns="http://www.w3.org/2000/svg">
<g clip-path="url(#clip0_2828_1359)">
<path d="M48.3665 25H41.2132C39.8214 25.0005 38.4705 25.4708 37.3793 26.3347C36.2881 27.1987 35.5205 28.4057 35.2007 29.7602C34.881 31.1148 35.0278 32.5377 35.6175 33.7984C36.2072 35.0591 37.2052 36.0838 38.4499 36.7067L44.9499 39.96C46.1945 40.5828 47.1925 41.6076 47.7822 42.8683C48.3719 44.129 48.5188 45.5519 48.199 46.9064C47.8793 48.261 47.1116 49.468 46.0204 50.3319C44.9292 51.1959 43.5783 51.6662 42.1865 51.6667H35.0332" stroke="#55A2FF" stroke-width="2" stroke-linecap="round" stroke-linejoin="round"/>
<path d="M41.7002 25V20" stroke="#55A2FF" stroke-width="2" stroke-linecap="round" stroke-linejoin="round"/>
<path d="M41.7002 56.6665V51.6665" stroke="#55A2FF" stroke-width="2" stroke-linecap="round" stroke-linejoin="round"/>
<path d="M56.666 23.3999L67.026 13.1133" stroke="#55A2FF" stroke-width="2" stroke-linecap="round" stroke-linejoin="round"/>
<path d="M65 8.33317C65 10.1013 65.7024 11.797 66.9526 13.0472C68.2029 14.2975 69.8986 14.9998 71.6667 14.9998C73.4348 14.9998 75.1305 14.2975 76.3807 13.0472C77.631 11.797 78.3333 10.1013 78.3333 8.33317C78.3333 6.56506 77.631 4.86937 76.3807 3.61913C75.1305 2.36888 73.4348 1.6665 71.6667 1.6665C69.8986 1.6665 68.2029 2.36888 66.9526 3.61913C65.7024 4.86937 65 6.56506 65 8.33317Z" stroke="#55A2FF" stroke-width="2" stroke-linecap="round" stroke-linejoin="round"/>
<path d="M59.873 59.9302L66.923 67.0235" stroke="#55A2FF" stroke-width="2" stroke-linecap="round" stroke-linejoin="round"/>
<path d="M65.0332 71.6667C65.0332 73.4348 65.7356 75.1305 66.9858 76.3807C68.2361 77.631 69.9318 78.3333 71.6999 78.3333C73.468 78.3333 75.1637 77.631 76.4139 76.3807C77.6642 75.1305 78.3665 73.4348 78.3665 71.6667C78.3665 69.8986 77.6642 68.2029 76.4139 66.9526C75.1637 65.7024 73.468 65 71.6999 65C69.9318 65 68.2361 65.7024 66.9858 66.9526C65.7356 68.2029 65.0332 69.8986 65.0332 71.6667Z" stroke="#55A2FF" stroke-width="2" stroke-linecap="round" stroke-linejoin="round"/>
<path d="M23.3332 23.3999L12.9766 13.1133" stroke="#55A2FF" stroke-width="2" stroke-linecap="round" stroke-linejoin="round"/>
<path d="M1.66699 8.33317C1.66699 10.1013 2.36937 11.797 3.61961 13.0472C4.86986 14.2975 6.56555 14.9998 8.33366 14.9998C10.1018 14.9998 11.7975 14.2975 13.0477 13.0472C14.2979 11.797 15.0003 10.1013 15.0003 8.33317C15.0003 6.56506 14.2979 4.86937 13.0477 3.61913C11.7975 2.36888 10.1018 1.6665 8.33366 1.6665C6.56555 1.6665 4.86986 2.36888 3.61961 3.61913C2.36937 4.86937 1.66699 6.56506 1.66699 8.33317Z" stroke="#55A2FF" stroke-width="2" stroke-linecap="round" stroke-linejoin="round"/>
<path d="M20.1305 59.9302L13.0771 67.0235" stroke="#55A2FF" stroke-width="2" stroke-linecap="round" stroke-linejoin="round"/>
<path d="M1.63379 71.6667C1.63379 73.4348 2.33617 75.1305 3.58641 76.3807C4.83665 77.631 6.53235 78.3333 8.30046 78.3333C10.0686 78.3333 11.7643 77.631 13.0145 76.3807C14.2647 75.1305 14.9671 73.4348 14.9671 71.6667C14.9671 69.8986 14.2647 68.2029 13.0145 66.9526C11.7643 65.7024 10.0686 65 8.30046 65C6.53235 65 4.83665 65.7024 3.58641 66.9526C2.33617 68.2029 1.63379 69.8986 1.63379 71.6667Z" stroke="#55A2FF" stroke-width="2" stroke-linecap="round" stroke-linejoin="round"/>
<path d="M55 38.3335H65" stroke="#55A2FF" stroke-width="2" stroke-linecap="round" stroke-linejoin="round"/>
<path d="M65 38.3332C65 40.1013 65.7024 41.797 66.9526 43.0472C68.2029 44.2975 69.8986 44.9998 71.6667 44.9998C73.4348 44.9998 75.1305 44.2975 76.3807 43.0472C77.631 41.797 78.3333 40.1013 78.3333 38.3332C78.3333 36.5651 77.631 34.8694 76.3807 33.6191C75.1305 32.3689 73.4348 31.6665 71.6667 31.6665C69.8986 31.6665 68.2029 32.3689 66.9526 33.6191C65.7024 34.8694 65 36.5651 65 38.3332Z" stroke="#55A2FF" stroke-width="2" stroke-linecap="round" stroke-linejoin="round"/>
<path d="M25 38.3335H15" stroke="#55A2FF" stroke-width="2" stroke-linecap="round" stroke-linejoin="round"/>
<path d="M1.66699 38.3332C1.66699 40.1013 2.36937 41.797 3.61961 43.0472C4.86986 44.2975 6.56555 44.9998 8.33366 44.9998C10.1018 44.9998 11.7975 44.2975 13.0477 43.0472C14.2979 41.797 15.0003 40.1013 15.0003 38.3332C15.0003 36.5651 14.2979 34.8694 13.0477 33.6191C11.7975 32.3689 10.1018 31.6665 8.33366 31.6665C6.56555 31.6665 4.86986 32.3689 3.61961 33.6191C2.36937 34.8694 1.66699 36.5651 1.66699 38.3332Z" stroke="#55A2FF" stroke-width="2" stroke-linecap="round" stroke-linejoin="round"/>
</g>
<defs>
<clipPath id="clip0_2828_1359">
<rect width="80" height="80" fill="white"/>
</clipPath>
</defs>
</svg>
