<svg width="80" height="80" viewBox="0 0 80 80" fill="none" xmlns="http://www.w3.org/2000/svg">
<path d="M70.7969 18.3332H17.8202L11.6402 12.1532C11.3279 11.8416 10.9047 11.6666 10.4635 11.6665H3.8502C3.56599 11.6665 3.2865 11.7392 3.0383 11.8777C2.79009 12.0161 2.58142 12.2158 2.43211 12.4576C2.2828 12.6994 2.19781 12.9754 2.18523 13.2594C2.17264 13.5433 2.23288 13.8257 2.3602 14.0798L10.6935 30.7465C10.8321 31.023 11.0448 31.2555 11.308 31.418C11.5711 31.5804 11.8743 31.6665 12.1835 31.6665H37.8202L20.6669 48.8198C20.4332 49.0529 20.274 49.3502 20.2094 49.6739C20.1449 49.9976 20.1779 50.3331 20.3043 50.6381C20.4306 50.943 20.6447 51.2035 20.9194 51.3866C21.194 51.5697 21.5168 51.6671 21.8469 51.6665H33.8002C34.2414 51.6664 34.6645 51.4914 34.9769 51.1798L54.4869 31.6665H71.1535C72.1239 31.6667 73.0827 31.4551 73.9628 31.0464C74.8429 30.6377 75.6232 30.0418 76.2492 29.3003C76.8751 28.5587 77.3317 27.6895 77.5869 26.7533C77.8421 25.8171 77.8899 24.8364 77.7269 23.8798C77.4065 22.289 76.5366 20.8615 75.2696 19.8474C74.0026 18.8334 72.4193 18.2973 70.7969 18.3332Z" stroke="#55A2FF" stroke-width="2" stroke-linecap="round" stroke-linejoin="round"/>
<path d="M54.4871 18.3332L38.3071 2.15317C37.9948 1.84161 37.5716 1.6666 37.1305 1.66651H28.5105C28.1804 1.66592 27.8576 1.76334 27.583 1.94644C27.3083 2.12953 27.0942 2.39005 26.9679 2.69496C26.8415 2.99987 26.8085 3.33545 26.873 3.65914C26.9376 3.98284 27.0968 4.28007 27.3305 4.51317L41.1538 18.3332" stroke="#55A2FF" stroke-width="2" stroke-linecap="round" stroke-linejoin="round"/>
<path d="M66.1003 67.333C66.8275 66.4828 67.757 65.8292 68.8032 65.4326C69.8494 65.036 70.9786 64.9091 72.0867 65.0635C73.1948 65.2179 74.2463 65.6488 75.1441 66.3163C76.042 66.9839 76.7574 67.8667 77.2245 68.8834C77.6915 69.9 77.8952 71.0179 77.8167 72.134C77.7383 73.2501 77.3801 74.3285 76.7754 75.2698C76.1707 76.2111 75.3387 76.9851 74.3563 77.5204C73.3738 78.0557 72.2724 78.3352 71.1536 78.333H56.1536C54.2183 78.3336 52.3244 77.7727 50.7016 76.7181C49.0788 75.6636 47.7969 74.1609 47.0113 72.3922C46.2257 70.6235 45.9703 68.6648 46.2759 66.7538C46.5815 64.8428 47.4351 63.0615 48.7331 61.626C50.0311 60.1905 51.7178 59.1625 53.5885 58.6667C55.4593 58.1709 57.4337 58.2286 59.2723 58.8328C61.1108 59.437 62.7346 60.5617 63.9466 62.0705C65.1586 63.5793 65.9067 65.4074 66.1003 67.333Z" stroke="#55A2FF" stroke-width="2" stroke-linecap="round" stroke-linejoin="round"/>
</svg>
