<svg width="80" height="80" viewBox="0 0 80 80" fill="none" xmlns="http://www.w3.org/2000/svg">
<path d="M68.3337 18.3332H11.667L14.4637 4.33317C14.6175 3.5797 15.0271 2.90259 15.623 2.41658C16.219 1.93058 16.9647 1.66558 17.7337 1.66651H62.267C63.036 1.66558 63.7817 1.93058 64.3776 2.41658C64.9736 2.90259 65.3832 3.5797 65.537 4.33317L68.3337 18.3332Z" stroke="#55A2FF" stroke-width="2" stroke-linecap="round" stroke-linejoin="round"/>
<path d="M60 18.333H20L21.6667 8.33301H58.3333L60 18.333Z" stroke="#55A2FF" stroke-width="2" stroke-linecap="round" stroke-linejoin="round"/>
<path d="M62.0303 75.4133C61.9296 76.2194 61.538 76.9609 60.9291 77.4986C60.3202 78.0363 59.536 78.3331 58.7237 78.3333H19.7037C18.8708 78.3369 18.0667 78.0286 17.4498 77.4691C16.8329 76.9095 16.4478 76.1393 16.3703 75.31L11.667 25H68.3337L62.0303 75.4133Z" stroke="#55A2FF" stroke-width="2" stroke-linecap="round" stroke-linejoin="round"/>
<path d="M75 21.6663C75 22.5504 74.6488 23.3982 74.0237 24.0234C73.3986 24.6485 72.5507 24.9997 71.6667 24.9997H8.33333C7.44928 24.9997 6.60143 24.6485 5.97631 24.0234C5.35119 23.3982 5 22.5504 5 21.6663C5 20.7823 5.35119 19.9344 5.97631 19.3093C6.60143 18.6842 7.44928 18.333 8.33333 18.333H71.6667C72.5507 18.333 73.3986 18.6842 74.0237 19.3093C74.6488 19.9344 75 20.7823 75 21.6663Z" stroke="#55A2FF" stroke-width="2" stroke-linecap="round" stroke-linejoin="round"/>
<path d="M62.0303 75.4133C61.9296 76.2194 61.538 76.9609 60.9291 77.4986C60.3202 78.0363 59.536 78.3331 58.7237 78.3333H19.7037C18.8708 78.3369 18.0667 78.0286 17.4498 77.4691C16.8329 76.9095 16.4478 76.1393 16.3703 75.31L11.667 25H68.3337L62.0303 75.4133Z" stroke="#55A2FF" stroke-width="2" stroke-linecap="round" stroke-linejoin="round"/>
<path d="M32.4933 53.8163L30.1099 48.7363L24.1133 50.023" stroke="#55A2FF" stroke-width="2" stroke-linecap="round" stroke-linejoin="round"/>
<path d="M32.9997 61.6063H27.2831C26.8089 61.6089 26.3426 61.4859 25.9314 61.2499C25.5201 61.0139 25.1787 60.6732 24.9417 60.2626C24.7047 59.8519 24.5806 59.3858 24.582 58.9117C24.5835 58.4376 24.7103 57.9722 24.9497 57.563L30.0964 48.7363" stroke="#55A2FF" stroke-width="2" stroke-linecap="round" stroke-linejoin="round"/>
<path d="M45.3968 57.4731L41.7734 61.9665L45.3968 66.9765" stroke="#55A2FF" stroke-width="2" stroke-linecap="round" stroke-linejoin="round"/>
<path d="M50.8165 51.8896L54.3332 57.9763C54.569 58.3855 54.693 58.8495 54.6926 59.3218C54.6923 59.794 54.5676 60.2579 54.3311 60.6667C54.0946 61.0755 53.7546 61.4148 53.3454 61.6505C52.9362 61.8863 52.4721 62.0101 51.9999 62.0096L41.7832 61.9663" stroke="#55A2FF" stroke-width="2" stroke-linecap="round" stroke-linejoin="round"/>
<path d="M41.3896 44.663L47.3963 45.2496L49.9697 40.293" stroke="#55A2FF" stroke-width="2" stroke-linecap="round" stroke-linejoin="round"/>
<path d="M34.4365 41.9595L37.6665 36.3695C37.9014 35.958 38.241 35.6159 38.6508 35.3779C39.0606 35.14 39.526 35.0146 39.9999 35.0146C40.4737 35.0146 40.9391 35.14 41.3489 35.3779C41.7587 35.6159 42.0983 35.958 42.3332 36.3695L47.3999 45.2395" stroke="#55A2FF" stroke-width="2" stroke-linecap="round" stroke-linejoin="round"/>
</svg>
