<svg width="80" height="80" viewBox="0 0 80 80" fill="none" xmlns="http://www.w3.org/2000/svg">
<g clip-path="url(#clip0_2828_1355)">
<path d="M1.66699 39.9998C1.66699 45.0338 2.65851 50.0186 4.58494 54.6694C6.51137 59.3202 9.33499 63.546 12.8946 67.1056C16.4541 70.6652 20.68 73.4888 25.3308 75.4152C29.9816 77.3417 34.9663 78.3332 40.0003 78.3332C45.0343 78.3332 50.019 77.3417 54.6699 75.4152C59.3207 73.4888 63.5465 70.6652 67.1061 67.1056C70.6657 63.546 73.4893 59.3202 75.4157 54.6694C77.3421 50.0186 78.3337 45.0338 78.3337 39.9998C78.3337 34.9658 77.3421 29.9811 75.4157 25.3303C73.4893 20.6795 70.6657 16.4537 67.1061 12.8941C63.5465 9.3345 59.3207 6.51089 54.6699 4.58446C50.019 2.65802 45.0343 1.6665 40.0003 1.6665C34.9663 1.6665 29.9816 2.65802 25.3308 4.58446C20.68 6.51089 16.4541 9.3345 12.8946 12.8941C9.33499 16.4537 6.51137 20.6795 4.58494 25.3303C2.65851 29.9811 1.66699 34.9658 1.66699 39.9998Z" stroke="#94CEF3" stroke-width="2" stroke-linecap="round" stroke-linejoin="round"/>
<path d="M44.7141 44.713C43.4567 45.9274 41.7727 46.5993 40.0248 46.5841C38.2768 46.5689 36.6047 45.8678 35.3686 44.6318C34.1326 43.3957 33.4315 41.7236 33.4163 39.9756C33.4011 38.2277 34.073 36.5436 35.2874 35.2863C37.8908 32.683 62.3941 17.6196 62.3941 17.6196C62.3941 17.6196 47.3341 42.1096 44.7141 44.713Z" stroke="#94CEF3" stroke-width="2" stroke-linecap="round" stroke-linejoin="round"/>
<path d="M11.667 40H16.667" stroke="#94CEF3" stroke-width="2" stroke-linecap="round" stroke-linejoin="round"/>
<path d="M19.9668 19.9663L23.5001 23.4996" stroke="#94CEF3" stroke-width="2" stroke-linecap="round" stroke-linejoin="round"/>
<path d="M40 11.6665V16.6665" stroke="#94CEF3" stroke-width="2" stroke-linecap="round" stroke-linejoin="round"/>
<path d="M68.334 40H63.334" stroke="#94CEF3" stroke-width="2" stroke-linecap="round" stroke-linejoin="round"/>
<path d="M68.777 65.3332C60.3285 59.503 50.2633 56.4717 40.0003 56.6666C29.7373 56.4717 19.672 59.503 11.2236 65.3332" stroke="#94CEF3" stroke-width="2" stroke-linecap="round" stroke-linejoin="round"/>
</g>
<defs>
<clipPath id="clip0_2828_1355">
<rect width="80" height="80" fill="white"/>
</clipPath>
</defs>
</svg>
