<svg width="80" height="80" viewBox="0 0 80 80" fill="none" xmlns="http://www.w3.org/2000/svg">
<path d="M75 65.0002C75.8841 65.0002 76.7319 64.649 77.357 64.0239C77.9821 63.3987 78.3333 62.5509 78.3333 61.6668V38.3335" stroke="#94CEF3" stroke-width="2" stroke-linecap="round" stroke-linejoin="round"/>
<path d="M41.667 65V8.33333C41.667 7.44928 41.3158 6.60143 40.6907 5.97631C40.0656 5.35119 39.2177 5 38.3337 5H1.66699" stroke="#94CEF3" stroke-width="2" stroke-linecap="round" stroke-linejoin="round"/>
<path d="M28.334 43.3333V15" stroke="#94CEF3" stroke-width="2" stroke-linecap="round" stroke-linejoin="round"/>
<path d="M15 43.3333V15" stroke="#94CEF3" stroke-width="2" stroke-linecap="round" stroke-linejoin="round"/>
<path d="M78.334 53.3335H48.334" stroke="#94CEF3" stroke-width="2" stroke-linecap="round" stroke-linejoin="round"/>
<path d="M41.667 53.3335H1.66699" stroke="#94CEF3" stroke-width="2" stroke-linecap="round" stroke-linejoin="round"/>
<path d="M78.3337 55V31.6667C78.3337 18.3333 69.0003 15 61.667 15H41.667" stroke="#94CEF3" stroke-width="2" stroke-linecap="round" stroke-linejoin="round"/>
<path d="M78.3328 41.6667H64.9995C64.5444 41.6675 64.094 41.5751 63.6759 41.3952C63.2579 41.2153 62.8811 40.9518 62.5688 40.6207C62.2566 40.2897 62.0154 39.8982 61.8601 39.4704C61.7049 39.0427 61.6389 38.5876 61.6662 38.1333V15" stroke="#94CEF3" stroke-width="2" stroke-linecap="round" stroke-linejoin="round"/>
<path d="M1.66699 68.3332C1.66699 70.1013 2.36937 71.797 3.61961 73.0472C4.86986 74.2975 6.56555 74.9998 8.33366 74.9998C10.1018 74.9998 11.7975 74.2975 13.0477 73.0472C14.2979 71.797 15.0003 70.1013 15.0003 68.3332C15.0003 66.5651 14.2979 64.8694 13.0477 63.6191C11.7975 62.3689 10.1018 61.6665 8.33366 61.6665C6.56555 61.6665 4.86986 62.3689 3.61961 63.6191C2.36937 64.8694 1.66699 66.5651 1.66699 68.3332Z" stroke="#94CEF3" stroke-width="2" stroke-linecap="round" stroke-linejoin="round"/>
<path d="M25 68.3332C25 70.1013 25.7024 71.797 26.9526 73.0472C28.2029 74.2975 29.8986 74.9998 31.6667 74.9998C33.4348 74.9998 35.1305 74.2975 36.3807 73.0472C37.631 71.797 38.3333 70.1013 38.3333 68.3332C38.3333 66.5651 37.631 64.8694 36.3807 63.6191C35.1305 62.3689 33.4348 61.6665 31.6667 61.6665C29.8986 61.6665 28.2029 62.3689 26.9526 63.6191C25.7024 64.8694 25 66.5651 25 68.3332Z" stroke="#94CEF3" stroke-width="2" stroke-linecap="round" stroke-linejoin="round"/>
<path d="M55 68.3332C55 70.1013 55.7024 71.797 56.9526 73.0472C58.2029 74.2975 59.8986 74.9998 61.6667 74.9998C63.4348 74.9998 65.1305 74.2975 66.3807 73.0472C67.631 71.797 68.3333 70.1013 68.3333 68.3332C68.3333 66.5651 67.631 64.8694 66.3807 63.6191C65.1305 62.3689 63.4348 61.6665 61.6667 61.6665C59.8986 61.6665 58.2029 62.3689 56.9526 63.6191C55.7024 64.8694 55 66.5651 55 68.3332Z" stroke="#94CEF3" stroke-width="2" stroke-linecap="round" stroke-linejoin="round"/>
<path d="M65.2673 15.2667L60.9007 10.9C59.3531 9.07116 57.4295 7.59744 55.2609 6.57928C53.0922 5.56112 50.7296 5.02246 48.334 5V15" stroke="#94CEF3" stroke-width="2" stroke-linecap="round" stroke-linejoin="round"/>
<path d="M55.9003 65H37.4336" stroke="#94CEF3" stroke-width="2" stroke-linecap="round" stroke-linejoin="round"/>
<path d="M25.9006 65H14.1006" stroke="#94CEF3" stroke-width="2" stroke-linecap="round" stroke-linejoin="round"/>
</svg>
