<svg width="80" height="80" viewBox="0 0 80 80" fill="none" xmlns="http://www.w3.org/2000/svg">
<path d="M34.1313 59.7326C34.1313 54.9326 31.9979 50.666 28.7979 46.9326C26.1313 43.7326 24.5312 39.9993 24.5312 36.266C24.5312 28.266 30.9313 21.3326 38.9313 20.7993C43.1979 20.7993 47.4646 21.866 50.6646 25.066C53.8646 28.266 55.4646 31.9993 55.4646 36.266C55.4646 40.5326 53.8646 44.266 51.1979 46.9326C47.9979 50.666 45.8646 54.9326 45.8646 59.7326H34.1313Z" stroke="#85BB6E" stroke-width="2" stroke-linecap="round" stroke-linejoin="round"/>
<path d="M40 4.79932V12.266" stroke="#85BB6E" stroke-width="2" stroke-linecap="round" stroke-linejoin="round"/>
<path d="M8.53125 36.7993H15.9979" stroke="#85BB6E" stroke-width="2" stroke-linecap="round" stroke-linejoin="round"/>
<path d="M18.667 58.1326L24.0003 52.7993" stroke="#85BB6E" stroke-width="2" stroke-linecap="round" stroke-linejoin="round"/>
<path d="M16.5312 14.3994L21.8646 19.7327" stroke="#85BB6E" stroke-width="2" stroke-linecap="round" stroke-linejoin="round"/>
<path d="M64 36.7993H71.4667" stroke="#85BB6E" stroke-width="2" stroke-linecap="round" stroke-linejoin="round"/>
<path d="M56.5312 52.7993L61.8646 58.1326" stroke="#85BB6E" stroke-width="2" stroke-linecap="round" stroke-linejoin="round"/>
<path d="M58.1309 19.7327L63.4642 14.3994" stroke="#85BB6E" stroke-width="2" stroke-linecap="round" stroke-linejoin="round"/>
<path d="M34.667 65.0664H45.867" stroke="#85BB6E" stroke-width="2" stroke-linecap="round" stroke-linejoin="round"/>
<path d="M34.667 69.333H45.867" stroke="#85BB6E" stroke-width="2" stroke-linecap="round" stroke-linejoin="round"/>
<path d="M35.7344 73.6001C35.7344 74.6668 37.8677 75.7334 40.001 75.7334C42.1344 75.7334 44.2677 74.6668 44.2677 73.6001" stroke="#85BB6E" stroke-width="2" stroke-linecap="round" stroke-linejoin="round"/>
</svg>
