<svg width="80" height="80" viewBox="0 0 80 80" fill="none" xmlns="http://www.w3.org/2000/svg">
<g clip-path="url(#clip0_2828_1353)">
<path d="M16.667 39.91C16.667 42.9742 17.2705 46.0083 18.4431 48.8393C19.6157 51.6702 21.3345 54.2424 23.5012 56.4091C25.6679 58.5758 28.2401 60.2946 31.071 61.4672C33.902 62.6398 36.9361 63.2433 40.0003 63.2433C43.0645 63.2433 46.0987 62.6398 48.9296 61.4672C51.7605 60.2946 54.3328 58.5758 56.4995 56.4091C58.6662 54.2424 60.3849 51.6702 61.5575 48.8393C62.7301 46.0083 63.3337 42.9742 63.3337 39.91C63.3337 36.8458 62.7301 33.8116 61.5575 30.9807C60.3849 28.1498 58.6662 25.5775 56.4995 23.4108C54.3328 21.2441 51.7605 19.5254 48.9296 18.3528C46.0987 17.1802 43.0645 16.5767 40.0003 16.5767C36.9361 16.5767 33.902 17.1802 31.071 18.3528C28.2401 19.5254 25.6679 21.2441 23.5012 23.4108C21.3345 25.5775 19.6157 28.1498 18.4431 30.9807C17.2705 33.8116 16.667 36.8458 16.667 39.91Z" stroke="#94CEF3" stroke-width="2" stroke-linecap="round" stroke-linejoin="round"/>
<path d="M76.8729 45.1832C77.2782 45.1326 77.6508 44.9349 77.92 44.6276C78.1891 44.3204 78.336 43.925 78.3329 43.5166V36.4699C78.336 36.0614 78.1891 35.6661 77.92 35.3588C77.6508 35.0516 77.2782 34.8539 76.8729 34.8032L69.3696 33.8666C68.6047 30.1916 67.1514 26.6945 65.0862 23.5599L69.7362 17.5766C69.9852 17.2561 70.1087 16.8558 70.0835 16.4507C70.0584 16.0457 69.8863 15.6638 69.5996 15.3766L64.5996 10.3766C64.3124 10.0898 63.9304 9.91776 63.5254 9.8926C63.1203 9.86744 62.72 9.99092 62.3996 10.2399L56.4162 14.9066C53.2811 12.8417 49.7843 11.3874 46.1096 10.6199L45.1829 3.12655C45.1323 2.72125 44.9345 2.34864 44.6273 2.0795C44.3201 1.81035 43.9247 1.6634 43.5162 1.66655H36.4696C36.0611 1.6634 35.6657 1.81035 35.3585 2.0795C35.0512 2.34864 34.8535 2.72125 34.8029 3.12655L33.8662 10.6266C30.1961 11.3956 26.704 12.8499 23.5729 14.9132L17.5896 10.2632C17.2691 10.0143 16.8688 9.89077 16.4637 9.91593C16.0587 9.94109 15.6768 10.1132 15.3896 10.3999L10.3896 15.3999C10.1029 15.6871 9.93077 16.069 9.90561 16.4741C9.88045 16.8791 10.0039 17.2794 10.2529 17.5999L14.9196 23.5999C12.8544 26.7345 11.4011 30.2316 10.6362 33.9066L3.1329 34.8432C2.72759 34.8939 2.35499 35.0916 2.08585 35.3988C1.8167 35.7061 1.66975 36.1014 1.6729 36.5099V43.5699C1.66975 43.9783 1.8167 44.3737 2.08585 44.681C2.35499 44.9882 2.72759 45.1859 3.1329 45.2366L10.6362 46.1732C11.4011 49.8482 12.8544 53.3453 14.9196 56.4799L10.2629 62.4099C10.0139 62.7304 9.89045 63.1307 9.91561 63.5357C9.94077 63.9407 10.1129 64.3227 10.3996 64.6099L15.3996 69.6099C15.6868 69.8966 16.0687 70.0687 16.4737 70.0938C16.8788 70.119 17.2791 69.9955 17.5996 69.7466L23.5996 65.0966C26.7347 67.1614 30.2315 68.6157 33.9062 69.3832L34.8429 76.8832C34.8935 77.2885 35.0912 77.6611 35.3985 77.9303C35.7057 78.1994 36.1011 78.3464 36.5096 78.3432H43.5696C43.978 78.3464 44.3734 78.1994 44.6806 77.9303C44.9879 77.6611 45.1856 77.2885 45.2362 76.8832L46.1729 69.3832C49.8476 68.6157 53.3444 67.1614 56.4796 65.0966L62.4629 69.7466C62.7834 69.9955 63.1837 70.119 63.5887 70.0938C63.9938 70.0687 64.3757 69.8966 64.6629 69.6099L69.6629 64.6099C69.9496 64.3227 70.1217 63.9407 70.1469 63.5357C70.172 63.1307 70.0485 62.7304 69.7996 62.4099L65.1496 56.4266C67.2147 53.292 68.6681 49.7949 69.4329 46.1199L76.8729 45.1832Z" stroke="#94CEF3" stroke-width="2" stroke-linecap="round" stroke-linejoin="round"/>
<path d="M49.9997 48.3335V30.0002C49.9997 29.5581 49.8241 29.1342 49.5115 28.8217C49.199 28.5091 48.775 28.3335 48.333 28.3335H44.9997C44.5576 28.3335 44.1337 28.5091 43.8212 28.8217C43.5086 29.1342 43.333 29.5581 43.333 30.0002V48.3335" stroke="#94CEF3" stroke-width="2" stroke-linecap="round" stroke-linejoin="round"/>
<path d="M36.6667 48.3335V40.0002C36.6667 39.5581 36.4911 39.1342 36.1785 38.8217C35.866 38.5091 35.442 38.3335 35 38.3335H31.6667C31.2246 38.3335 30.8007 38.5091 30.4882 38.8217C30.1756 39.1342 30 39.5581 30 40.0002V48.3335" stroke="#94CEF3" stroke-width="2" stroke-linecap="round" stroke-linejoin="round"/>
<path d="M26.667 48.3335H53.3337" stroke="#94CEF3" stroke-width="2" stroke-linecap="round" stroke-linejoin="round"/>
</g>
<defs>
<clipPath id="clip0_2828_1353">
<rect width="80" height="80" fill="white"/>
</clipPath>
</defs>
</svg>
