<svg width="80" height="80" viewBox="0 0 80 80" fill="none" xmlns="http://www.w3.org/2000/svg">
<path d="M5.56696 46.2331C3.66696 54.0998 6.2003 60.9331 19.4003 57.8665C29.767 66.5998 34.9336 62.4665 37.0003 53.7665C38.9336 45.7998 33.667 30.4331 26.0336 23.2665C25.8093 23.0544 25.5397 22.8961 25.2452 22.8037C24.9506 22.7113 24.6389 22.6872 24.3336 22.7331C24.0272 22.7841 23.7362 22.9034 23.4823 23.0823C23.2284 23.2612 23.0181 23.4951 22.867 23.7665C17.6336 33.3331 7.73363 37.0998 5.56696 46.2331Z" stroke="#85BB6E" stroke-width="2" stroke-linecap="round" stroke-linejoin="round"/>
<path d="M22.8 41.0997C20 45.333 20 58.1997 20 58.1997C20 63.504 22.1071 68.5911 25.8579 72.3418C29.6086 76.0925 34.6957 78.1997 40 78.1997C45.3043 78.1997 50.3914 76.0925 54.1421 72.3418C57.8929 68.5911 60 63.504 60 58.1997V33.333" stroke="#85BB6E" stroke-width="2" stroke-linecap="round" stroke-linejoin="round"/>
<path d="M45 18.3332C45 22.3114 46.5804 26.1267 49.3934 28.9398C52.2064 31.7528 56.0218 33.3332 60 33.3332C63.9782 33.3332 67.7936 31.7528 70.6066 28.9398C73.4196 26.1267 75 22.3114 75 18.3332V13.3332C75 12.8911 74.8244 12.4672 74.5118 12.1547C74.1993 11.8421 73.7754 11.6665 73.3333 11.6665H46.6667C46.2246 11.6665 45.8007 11.8421 45.4882 12.1547C45.1756 12.4672 45 12.8911 45 13.3332V18.3332Z" stroke="#85BB6E" stroke-width="2" stroke-linecap="round" stroke-linejoin="round"/>
<path d="M51.667 11.6665V1.6665" stroke="#85BB6E" stroke-width="2" stroke-linecap="round" stroke-linejoin="round"/>
<path d="M68.334 11.6665V1.6665" stroke="#85BB6E" stroke-width="2" stroke-linecap="round" stroke-linejoin="round"/>
</svg>
